<svg height='100px' width='100px'  fill="#FFFFFF" xmlns="http://www.w3.org/2000/svg" viewBox="0 0 64 64" x="0px" y="0px"><title>wave</title><g data-name="Layer 4"><path d="M58.94,60.15h0L5.18,59.6a1,1,0,0,1-1-.92A58.48,58.48,0,0,1,8.73,30.07a37.27,37.27,0,0,1,10-14.15,30.85,30.85,0,0,1,10-5.75A24.88,24.88,0,0,1,41.19,9.1a23.83,23.83,0,0,1,12,5.8A20.66,20.66,0,0,1,59,23.76c1.57,4.82,1.24,10.41,0,12.6a2.17,2.17,0,0,1-1.41,1.14c-1.45.3-2.31-1.27-3.48-3.45-1.6-2.94-3.79-7-7.91-8.36a7.44,7.44,0,0,0-2.37-.36A7.79,7.79,0,0,0,36,33.1a8.32,8.32,0,0,0,.4,2.47A11.8,11.8,0,0,0,40,40.86c2.07,1.88,8.42,6.55,19.5,13.49a1,1,0,0,1,.47.85v3.95a1,1,0,0,1-1,1ZM6.12,57.61l51.82.53V55.75c-9-5.65-16.55-10.9-19.32-13.41a13.86,13.86,0,0,1-4.16-6.19h0a10.23,10.23,0,0,1-.48-3,9.79,9.79,0,0,1,9.78-9.77,9.31,9.31,0,0,1,3,.46c4.89,1.64,7.39,6.26,9,9.31a17.35,17.35,0,0,0,1.39,2.31c.72-1.09,1.52-6-.11-11a18.85,18.85,0,0,0-5.29-8,22.18,22.18,0,0,0-10.93-5.29,23,23,0,0,0-11.52,1A28.76,28.76,0,0,0,20,17.45a35.41,35.41,0,0,0-9.45,13.43A56.37,56.37,0,0,0,6.12,57.61Z"></path><path d="M28.48,59.84a1.13,1.13,0,0,1-.48-.11A20.35,20.35,0,1,1,47.9,24.25l.08.05a21.16,21.16,0,0,1,6,5.64h0a1.3,1.3,0,0,1,.1.15h0a19.37,19.37,0,0,1,1.59,2.73,1.09,1.09,0,0,1,.12.47,1,1,0,0,1-1,1,1,1,0,0,1-.91-.59h0a17.46,17.46,0,0,0-1.43-2.46l-.07-.11,0,0A19,19,0,0,0,47,26h0l-.06,0a18.35,18.35,0,1,0-18,32,1,1,0,0,1-.4,1.91ZM53.35,30.56l-.11.1.14-.1Z"></path><path d="M48.18,60a.92.92,0,0,1-.39-.09C34.85,54.37,26.67,45,27,36.13c.14-4.42,1.56-7.89,4.23-10.32,5.13-4.67,12.26-3.12,13.64-2.76a1,1,0,1,1-.5,1.93c-.74-.19-7.33-1.75-11.79,2.31-2.26,2.05-3.46,5-3.58,8.89-.25,8.08,7.45,16.68,19.63,21.94a1,1,0,0,1-.4,1.92Z"></path></g></svg>